<svg width="32" height="32" viewBox="0 0 32 32" fill="none" xmlns="http://www.w3.org/2000/svg">
<path d="M13.9 2H18.1V7.6H13.9V2Z" fill="black"/>
<path d="M30 13.9H24.4V18.1H30V13.9Z" fill="black"/>
<path d="M18.1 24.4H13.9V30H18.1V24.4Z" fill="black"/>
<path d="M7.6 13.9H2V18.1H7.6V13.9Z" fill="black"/>
<path d="M25.2975 9.67021L25.3118 9.68458V9.65591L25.2975 9.67021Z" fill="black"/>
<path d="M22.3298 6.68817L25.2975 9.67021L20.6523 14.3154C19.7348 15.233 19.7348 16.7383 20.6523 17.6559L25.3118 22.3154L22.3298 25.3118L17.6703 20.6523C16.7527 19.7348 15.2473 19.7348 14.3298 20.6523L9.67026 25.3118L6.68818 22.3154L11.3477 17.6702C12.2652 16.7527 12.2652 15.2473 11.3477 14.3297L6.68818 9.67025L9.68459 6.68817L14.3298 11.3477C15.2473 12.2652 16.7527 12.2652 17.6703 11.3477L22.3298 6.68817Z" fill="black"/>
</svg>
